<?xml version="1.0" encoding="utf-8"?>
<!-- Generator: Adobe Illustrator 16.0.0, SVG Export Plug-In . SVG Version: 6.00 Build 0)  -->
<!DOCTYPE svg PUBLIC "-//W3C//DTD SVG 1.1//EN" "http://www.w3.org/Graphics/SVG/1.1/DTD/svg11.dtd">
<svg version="1.1" id="Objects" xmlns="http://www.w3.org/2000/svg" xmlns:xlink="http://www.w3.org/1999/xlink" x="0px" y="0px"
	 width="1078.21px" height="1361.613px" viewBox="266.965 -1.051 1078.21 1361.613"
	 enable-background="new 266.965 -1.051 1078.21 1361.613" xml:space="preserve">
<title>03</title>
<path fill="#FFFFFF" stroke="#FFFFFF" stroke-miterlimit="10" d="M765.032,159.249l-91.528,41.011c0,0-44.199,39.489-73.694,126.365
	s-6.146,174.24,44.429,236.217c92.879,113.785,186.359,148.163,246.728,260.312C867.99,715.858,751.85,646.615,682.952,535.013
	c-35.928-54.825-51.321-172.718-14.935-239.634C704.405,228.462,765.032,159.249,765.032,159.249z"/>
<path fill="#FFFFFF" stroke="#FFFFFF" stroke-miterlimit="10" d="M608.627,224.183l-62.379,28.719c0,0-66.858,67.318-64.273,168.525
	c2.584,101.207,73.147,202.27,186.043,292.075c112.896,89.806,210.973,159.249,250.863,254.913
	c-24.87-120.42-124.642-190.696-237.365-287.193c-83.659-71.512-151.235-192.42-145.262-280.818S608.627,224.183,608.627,224.183z"
	/>
<path fill="#FFFFFF" stroke="#FFFFFF" stroke-miterlimit="10" d="M453.542,339.233l-31.591,18.639c0,0-46.21,70.506-23.809,172.115
	c22.401,101.609,120.621,199.829,250.059,294.517c129.438,94.688,268.325,206.062,329.469,404.685
	c3.963-128.146-119.042-305.459-296.986-438.372C502.738,657.902,463.709,551.411,445.759,482.227
	C427.81,413.042,453.542,339.233,453.542,339.233z"/>
<path fill="#FFFFFF" stroke="#FFFFFF" stroke-miterlimit="10" d="M341.278,491.101l-23.866,45.577c0,0-26.479,98.278,45.951,201.38
	c72.43,103.103,185.556,157.985,338.486,270.422c152.93,112.436,200.174,208.99,246.986,351.927
	c-25.475-195.292-125.102-327.602-300.29-445.15C473.358,797.708,401.101,693.629,370.744,639.551S341.278,491.101,341.278,491.101z
	"/>
<path fill="#FFFFFF" stroke="#FFFFFF" stroke-miterlimit="10" d="M277.693,705.002L267.47,786.45c0,0,10.08,74.325,75.618,123.952
	c65.537,49.627,182.453,98.393,270.593,144.86c59.708,31.592,118.065,65.596,181.822,131.276
	c-54.165-101.753-123.896-143.31-215.596-189.979c-123.924-63.183-213.528-123.033-244.517-167.635
	C304.402,784.325,277.693,705.002,277.693,705.002z"/>
<path fill="#FFFFFF" stroke="#FFFFFF" stroke-miterlimit="10" d="M1321.813,550.693c0,0-216.313-81.333-254.626-288.112
	c-69.874-7.668-176.882-115.251-189.346-120.277c8.414-53.963,2.44-95.406,24.469-142.304
	c-58.387,27.771-120.42,72.057-103.131,138.169c0,0-45.463,54.365-88.197,179.094c-53.533,156.176,60.827,289.605,168.094,304.425
	c56.434,7.726,102.441,5.428,149.082,2.24c85.929,23.607,115.423,169.443,182.598,129.668c9.104-6.175-7.812-25.848,10.109-37.336
	c19.759-12.636,67.462,20.276,123.665-42.274C1291.228,601.957,1321.813,550.693,1321.813,550.693z"/>
</svg>
